Format : Matroska
File size : 2.05 GiB
Duration : 1h 37mn
Overall bit rate : 3 000 Kbps
Encoded date : UTC 2010-10-26 02:46:57

Video #1
ID : 1
Format : AVC
Format/Info : Advanced Video Codec
Format profile : High@L4.1
Format settings, CABAC : Yes
Format settings, ReFrames : 4 frames
Muxing mode : Container profile=Unknown@4.1
Codec ID : V_MPEG4/ISO/AVC
Duration : 1h 37mn
Bit rate : 2 492 Kbps
Nominal bit rate : 2 552 Kbps
Width : 1 280 pixels
Height : 720 pixels
Display aspect ratio : 16:9
Frame rate : 23.976 fps
Resolution : 8 bits
Colorimetry : 4:2:0
Scan type : Progressive
Bits/(Pixel*Frame) : 0.113
Stream size : 1.70 GiB (83%)
Audio #2
ID : 2
Format : AC-3
Format/Info : Audio Coding 3
Codec ID : A_AC3
Duration : 1h 37mn
Bit rate mode : Constant
Bit rate : 448 Kbps
Channel(s) : 6 channels
Channel positions : Front: L C R, Surround: L R, LFE
Sampling rate : 48.0 KHz
Stream size : 313 MiB (15%)




Screenshots 
http://img683.imageshack.us/img683/3315/73639568.png 
http://img530.imageshack.us/img530/6083/wildtargetsreepcmkvsnap.png 
http://img210.imageshack.us/img210/6083/wildtargetsreepcmkvsnap.png 
http://img18.imageshack.us/img18/6083/wildtargetsreepcmkvsnap.png 
http://img413.imageshack.us/img413/6083/wildtargetsreepcmkvsnap.png 
http://img808.imageshack.us/img808/7990/wildtargetsreepcmkvthum.png